<?xml version="1.0" standalone="no"?>
<!DOCTYPE svg PUBLIC "-//W3C//DTD SVG 20010904//EN"
 "http://www.w3.org/TR/2001/REC-SVG-20010904/DTD/svg10.dtd">
<svg version="1.0" xmlns="http://www.w3.org/2000/svg"
 width="300.000000pt" height="300.000000pt" viewBox="0 0 300.000000 300.000000"
 preserveAspectRatio="xMidYMid meet">
<metadata>
Created by potrace 1.14, written by Peter Selinger 2001-2017
</metadata>
<g transform="translate(0.000000,300.000000) scale(0.100000,-0.100000)"
fill="#000000" stroke="none">
<path d="M0 1500 l0 -1500 1500 0 1500 0 0 1500 0 1500 -1500 0 -1500 0 0
-1500z m1751 564 c70 -20 135 -62 192 -123 54 -57 75 -96 97 -175 15 -52 21
-61 48 -70 73 -25 142 -110 142 -173 0 -26 -2 -26 -19 12 -31 70 -92 111 -186
127 -13 2 -22 15 -27 42 -22 106 -112 214 -218 265 -48 23 -68 26 -155 26 -83
0 -108 -4 -149 -23 -69 -31 -132 -86 -171 -147 l-33 -51 -64 -1 c-117 -1 -215
-74 -258 -192 l-20 -56 5 48 c14 136 120 245 256 263 37 5 49 12 58 31 34 75
133 157 231 193 69 24 194 26 271 4z m-431 -752 c0 -177 2 -201 18 -214 9 -9
26 -18 37 -20 13 -2 21 -12 23 -31 3 -24 0 -27 -25 -27 -45 0 -90 34 -102 77
-12 41 -15 395 -4 406 3 4 17 7 30 7 l23 0 0 -198z m1090 20 c0 -165 -2 -181
-22 -222 -91 -178 -344 -86 -314 114 12 78 88 146 164 146 15 0 45 -9 67 -20
22 -11 41 -20 42 -20 2 0 3 38 3 83 0 46 3 87 7 90 3 4 17 7 30 7 l23 0 0
-178z m-1600 29 c78 -16 96 -68 48 -148 -22 -36 -54 -49 -177 -72 -65 -13 -87
-21 -99 -38 l-14 -23 131 0 c72 0 131 -3 131 -7 -1 -17 -28 -43 -54 -53 -32
-12 -336 -14 -336 -2 0 5 7 31 15 59 23 77 52 96 181 121 113 21 138 36 132
77 -2 16 -12 21 -47 23 -57 4 -91 -5 -91 -23 0 -19 -40 -35 -86 -35 -43 0 -46
24 -9 69 44 51 161 74 275 52z m344 -11 c41 -20 90 -76 80 -92 -11 -17 -48 -7
-81 22 -38 34 -77 39 -122 15 -30 -15 -61 -69 -61 -105 0 -36 31 -90 61 -105
45 -24 84 -19 122 15 33 29 87 41 87 20 0 -25 -72 -88 -113 -98 -113 -29 -209
48 -211 168 -1 73 35 132 97 161 54 24 91 24 141 -1z m463 5 c50 -21 72 -42
94 -90 25 -54 24 -102 -3 -155 -42 -83 -131 -117 -211 -82 -110 49 -142 190
-64 279 54 61 115 77 184 48z m203 -115 c0 -115 1 -122 25 -145 32 -33 78 -33
110 0 24 23 25 30 25 145 l0 120 31 0 31 0 -4 -136 -3 -136 -37 -34 c-22 -20
-49 -35 -65 -36 -83 -4 -121 12 -153 65 -17 27 -20 51 -20 155 l0 122 30 0 30
0 0 -120z"/>
<path d="M2182 1294 c-93 -65 -52 -224 59 -224 69 0 116 64 106 143 -11 80
-102 125 -165 81z"/>
<path d="M1490 1283 c-75 -67 -32 -213 62 -213 60 0 118 59 118 119 0 99 -110
156 -180 94z"/>
</g>
</svg>
